<svg xmlns="http://www.w3.org/2000/svg" x="0px" y="0px"
width="16px" height="16px"
viewBox="0 0 172 172"
style=" fill:#000000;"><g fill="none" fill-rule="nonzero" stroke="none" stroke-width="1" stroke-linecap="butt" stroke-linejoin="miter" stroke-miterlimit="10" stroke-dasharray="" stroke-dashoffset="0" font-family="none" font-weight="none" font-size="none" text-anchor="none" style="mix-blend-mode: normal"><path d="M0,172v-172h172v172z" fill="none"></path><g fill="#ffffff"><path d="M28.61068,22.87734c-2.33303,0.00061 -4.43307,1.41473 -5.31096,3.57628c-0.8779,2.16155 -0.3586,4.6395 1.31331,6.26669l24.61302,24.61302h-14.82604c-2.06765,-0.02924 -3.99087,1.05709 -5.03322,2.843c-1.04236,1.78592 -1.04236,3.99474 0,5.78066c1.04236,1.78592 2.96558,2.87225 5.03322,2.843h27.79323c1.82953,0.30821 3.69512,-0.28785 5.00702,-1.59975c1.3119,-1.3119 1.90796,-3.17749 1.59975,-5.00702v-27.79323c0.02122,-1.54972 -0.58581,-3.04203 -1.68279,-4.1369c-1.09698,-1.09487 -2.59045,-1.69903 -4.14013,-1.67482c-3.16203,0.04943 -5.68705,2.6496 -5.64375,5.81172v14.82604l-24.61302,-24.61302c-1.07942,-1.10959 -2.56163,-1.73559 -4.10963,-1.73568zM143.22136,22.87734c-1.48951,0.04438 -2.90324,0.6669 -3.94167,1.73568l-24.61302,24.61302v-14.82604c0.02122,-1.54972 -0.58581,-3.04203 -1.68279,-4.1369c-1.09698,-1.09487 -2.59045,-1.69903 -4.14013,-1.67482c-3.16203,0.04943 -5.68705,2.6496 -5.64375,5.81172v27.79323c-0.30821,1.82953 0.28785,3.69512 1.59975,5.00702c1.3119,1.3119 3.17749,1.90796 5.00702,1.59975h27.79323c2.06765,0.02924 3.99087,-1.05709 5.03322,-2.843c1.04236,-1.78592 1.04236,-3.99474 0,-5.78066c-1.04236,-1.78592 -2.96558,-2.87225 -5.03322,-2.843h-14.82604l24.61302,-24.61302c1.69569,-1.64828 2.20555,-4.16851 1.28389,-6.3463c-0.92166,-2.17779 -3.08576,-3.56638 -5.44951,-3.49667zM62.95469,103.14401c-0.21364,0.00675 -0.42673,0.02545 -0.63828,0.05599h-27.91641c-2.06765,-0.02924 -3.99087,1.05709 -5.03322,2.843c-1.04236,1.78592 -1.04236,3.99474 0,5.78066c1.04236,1.78592 2.96558,2.87225 5.03322,2.843h14.82604l-24.61302,24.61302c-1.49776,1.43802 -2.1011,3.57339 -1.57731,5.58258c0.52378,2.00919 2.09283,3.57824 4.10202,4.10202c2.00919,0.52378 4.14456,-0.07955 5.58258,-1.57732l24.61302,-24.61302v14.82604c-0.02924,2.06765 1.05709,3.99087 2.843,5.03322c1.78592,1.04236 3.99474,1.04236 5.78066,0c1.78592,-1.04236 2.87225,-2.96558 2.843,-5.03322v-27.9388c0.23111,-1.67076 -0.28511,-3.35853 -1.41129,-4.61415c-1.12617,-1.25562 -2.74806,-1.95172 -4.43402,-1.90304zM108.87734,103.14401c-1.6591,0.00036 -3.2367,0.71934 -4.32542,1.97126c-1.08872,1.25192 -1.5818,2.91404 -1.35192,4.55713v27.92761c-0.02924,2.06765 1.05709,3.99087 2.843,5.03322c1.78592,1.04236 3.99474,1.04236 5.78066,0c1.78592,-1.04236 2.87225,-2.96558 2.843,-5.03322v-14.82604l24.61302,24.61302c1.43802,1.49778 3.5734,2.10113 5.5826,1.57735c2.0092,-0.52378 3.57826,-2.09284 4.10204,-4.10204c0.52378,-2.0092 -0.07957,-4.14458 -1.57735,-5.5826l-24.61302,-24.61302h14.82604c2.06765,0.02924 3.99087,-1.05709 5.03322,-2.843c1.04236,-1.78592 1.04236,-3.99474 0,-5.78066c-1.04236,-1.78592 -2.96558,-2.87225 -5.03322,-2.843h-27.99479c-0.24119,-0.03411 -0.4843,-0.05281 -0.72787,-0.05599z"></path></g></g></svg>