<svg xmlns="http://www.w3.org/2000/svg" x="0px" y="0px"
width="16px" height="16px"
viewBox="0 0 172 172"
style=" fill:#000000;"><g fill="none" fill-rule="nonzero" stroke="none" stroke-width="1" stroke-linecap="butt" stroke-linejoin="miter" stroke-miterlimit="10" stroke-dasharray="" stroke-dashoffset="0" font-family="none" font-weight="none" font-size="none" text-anchor="none" style="mix-blend-mode: normal"><path d="M0,172v-172h172v172z" fill="none"></path><g fill="#ffffff"><path d="M28.58968,21.43001c-2.07405,0.00219 -4.04547,0.90273 -5.40505,2.469c-1.35959,1.56628 -1.97403,3.64471 -1.68463,5.69848v27.73584c-0.03655,2.58456 1.32136,4.98858 3.55376,6.29153c2.2324,1.30295 4.99342,1.30295 7.22582,0c2.2324,-1.30295 3.59031,-3.70697 3.55376,-6.29153v-11.36589l27.18294,27.18294c1.79752,1.87223 4.46675,2.62641 6.97825,1.97168c2.5115,-0.65472 4.47282,-2.61605 5.12755,-5.12755c0.65472,-2.5115 -0.09946,-5.18073 -1.97168,-6.97825l-27.18294,-27.18294h11.36589c2.58456,0.03655 4.98858,-1.32136 6.29153,-3.55376c1.30295,-2.2324 1.30295,-4.99342 0,-7.22582c-1.30295,-2.2324 -3.70697,-3.59031 -6.29153,-3.55376h-27.78483c-0.31768,-0.04476 -0.63801,-0.06814 -0.95882,-0.06999zM143.19336,21.43001c-0.26471,0.0087 -0.52873,0.03206 -0.79086,0.06999h-27.73584c-2.58456,-0.03655 -4.98858,1.32136 -6.29153,3.55376c-1.30295,2.2324 -1.30295,4.99342 0,7.22582c1.30295,2.2324 3.70697,3.59031 6.29153,3.55376h11.36589l-27.18294,27.18294c-1.87223,1.79752 -2.62641,4.46675 -1.97168,6.97825c0.65472,2.5115 2.61605,4.47282 5.12755,5.12755c2.5115,0.65472 5.18073,-0.09946 6.97825,-1.97168l27.18294,-27.18294v11.36589c-0.03655,2.58456 1.32136,4.98858 3.55376,6.29153c2.2324,1.30295 4.99342,1.30295 7.22582,0c2.2324,-1.30295 3.59031,-3.70697 3.55376,-6.29153v-27.78483c0.27987,-2.084 -0.3695,-4.18578 -1.77614,-5.74871c-1.40664,-1.56293 -3.42864,-2.42934 -5.5305,-2.36978zM67.94336,96.68001c-1.86189,0.05548 -3.62905,0.83363 -4.92708,2.1696l-27.18294,27.18294v-11.36589c0.03655,-2.58456 -1.32136,-4.98858 -3.55376,-6.29153c-2.2324,-1.30295 -4.99342,-1.30295 -7.22582,0c-2.2324,1.30295 -3.59031,3.70697 -3.55376,6.29153v27.78483c-0.29714,2.22136 0.46187,4.45384 2.0514,6.03375c1.58953,1.57991 3.82657,2.32537 6.04609,2.01475h27.73584c2.58456,0.03655 4.98858,-1.32136 6.29153,-3.55376c1.30295,-2.2324 1.30295,-4.99342 0,-7.22582c-1.30295,-2.2324 -3.70697,-3.59031 -6.29153,-3.55376h-11.36589l27.18294,-27.18294c2.11961,-2.06035 2.75693,-5.21064 1.60486,-7.93287c-1.15207,-2.72223 -3.85719,-4.45797 -6.81189,-4.37084zM103.83968,96.68001c-2.91501,0.00361 -5.53745,1.7723 -6.63303,4.47359c-1.09558,2.70129 -0.44601,5.79702 1.64296,7.83012l27.18294,27.18294h-11.36589c-2.58456,-0.03655 -4.98858,1.32136 -6.29153,3.55376c-1.30295,2.2324 -1.30295,4.99342 0,7.22582c1.30295,2.2324 3.70697,3.59031 6.29153,3.55376h27.78483c2.22136,0.29714 4.45384,-0.46187 6.03376,-2.0514c1.57991,-1.58953 2.32537,-3.82658 2.01475,-6.04609v-27.73584c0.03655,-2.58456 -1.32136,-4.98858 -3.55376,-6.29153c-2.2324,-1.30295 -4.99342,-1.30295 -7.22582,0c-2.2324,1.30295 -3.59031,3.70697 -3.55376,6.29153v11.36589l-27.18294,-27.18294c-1.35097,-1.38873 -3.2066,-2.17137 -5.14404,-2.1696z"></path></g></g></svg>